<svg width="24" height="24" viewBox="0 0 24 24" fill="none" xmlns="http://www.w3.org/2000/svg">
<circle cx="12" cy="12" r="12" fill="#F4F5F7"/>
<path d="M16.4368 15.1545L15.1868 12.004L14.9048 11.3059C14.8672 11.1927 14.9004 11.0278 14.9854 10.943L16.4297 9.50234C16.8828 9.05035 17.0865 8.1785 16.8893 7.56543C16.8189 7.35321 16.6494 7.1833 16.4373 7.11232C15.8295 6.91829 14.9524 7.12463 14.4993 7.57662L13.055 9.01733C12.97 9.10207 12.805 9.13487 12.6919 9.09702L8.85187 7.5602C8.43254 7.38526 7.81955 7.5165 7.4986 7.83665L6.87557 8.45814C6.47438 8.85834 6.57748 9.35815 7.1099 9.57094L10.4882 10.9186C10.7521 11.0227 10.8036 11.2726 10.6007 11.475L10.0767 11.9976L9.22717 12.8451C9.11861 12.9534 8.90165 13.0474 8.7508 13.0472L6.55877 13.0492C6.33249 13.0489 6.05887 13.2183 5.95018 13.4303L5.52015 14.283C5.32642 14.6458 5.50972 15.0938 5.90083 15.2216L7.96536 15.4033C8.28117 15.4272 8.55895 15.7057 8.58213 16.0216L8.75871 18.0866C8.89022 18.4733 9.33311 18.6624 9.70575 18.479L10.5595 18.0511C10.7671 17.9476 10.9418 17.6697 10.9421 17.4434L10.9495 15.2514C10.945 15.0958 11.0396 14.8791 11.1481 14.7708L12.5216 13.4007C12.7246 13.1983 12.9649 13.2504 13.0777 13.5146L14.417 16.8962C14.6285 17.4291 15.1281 17.5335 15.5293 17.1333L16.1523 16.5118C16.4732 16.1916 16.606 15.579 16.4368 15.1545Z" fill="#292D32"/>
</svg>
