<svg width="14" height="14" viewBox="0 0 14 14" fill="none" xmlns="http://www.w3.org/2000/svg">
<path d="M8.14125 1.28958L9.31623 3.63958C9.47457 3.96458 9.89957 4.27291 10.2579 4.33958L12.3829 4.68958C13.7413 4.91458 14.0579 5.89791 13.0829 6.88124L11.4246 8.53958C11.1496 8.81458 10.9913 9.35625 11.0829 9.74791L11.5579 11.7979C11.9329 13.4146 11.0662 14.0479 9.64124 13.1979L7.64957 12.0146C7.29123 11.7979 6.69124 11.7979 6.33291 12.0146L4.34123 13.1979C2.91623 14.0396 2.04958 13.4146 2.42458 11.7979L2.89958 9.74791C2.99125 9.36458 2.83291 8.82291 2.55791 8.53958L0.899586 6.88124C-0.0754135 5.90624 0.24125 4.92291 1.59958 4.68958L3.72457 4.33958C4.08291 4.28124 4.50791 3.96458 4.66624 3.63958L5.84125 1.28958C6.46625 0.0145783 7.49959 0.0145783 8.14125 1.28958Z" fill="#FFD910"/>
</svg>
