<svg viewBox="0 0 16 16" fill="none" xmlns="http://www.w3.org/2000/svg">
<path d="M9.36946 1.1475L10.7794 3.9675C10.9694 4.3575 11.4794 4.7275 11.9094 4.8075L14.4595 5.2275C16.0895 5.4975 16.4694 6.6775 15.2994 7.8575L13.3094 9.8475C12.9794 10.1775 12.7895 10.8275 12.8995 11.2975L13.4694 13.7575C13.9194 15.6975 12.8794 16.4575 11.1694 15.4375L8.77943 14.0175C8.34943 13.7575 7.62944 13.7575 7.19944 14.0175L4.80943 15.4375C3.09943 16.4475 2.05944 15.6975 2.50944 13.7575L3.07945 11.2975C3.18945 10.8375 2.99945 10.1875 2.66945 9.8475L0.679455 7.8575C-0.490545 6.6875 -0.110549 5.5075 1.51945 5.2275L4.06944 4.8075C4.49944 4.7375 5.00944 4.3575 5.19944 3.9675L6.60945 1.1475C7.35945 -0.3825 8.59946 -0.3825 9.36946 1.1475Z" fill="#FFD910"/>
</svg>
